<svg width="900" height="900" viewBox="0 0 900 900" fill="none" xmlns="http://www.w3.org/2000/svg">
<mask id="path-1-inside-1_3_4" fill="white">
<path fill-rule="evenodd" clip-rule="evenodd" d="M40 0C17.9086 0 0 17.9086 0 40V360C0 382.091 17.9086 400 40 400H360C382.091 400 400 382.091 400 360V40C400 17.9086 382.091 0 360 0H40ZM184.307 232.455V277.54H214.818V232.455H259.903V201.943H214.818V156.858H184.307V201.943H139.222V232.455H184.307Z"/>
</mask>
<path fill-rule="evenodd" clip-rule="evenodd" d="M40 0C17.9086 0 0 17.9086 0 40V360C0 382.091 17.9086 400 40 400H360C382.091 400 400 382.091 400 360V40C400 17.9086 382.091 0 360 0H40ZM184.307 232.455V277.54H214.818V232.455H259.903V201.943H214.818V156.858H184.307V201.943H139.222V232.455H184.307Z" fill="#EEEEEE"/>
<path d="M184.307 277.54H182.307V279.54H184.307V277.54ZM184.307 232.455H186.307V230.455H184.307V232.455ZM214.818 277.54V279.54H216.818V277.54H214.818ZM214.818 232.455V230.455H212.818V232.455H214.818ZM259.903 232.455V234.455H261.903V232.455H259.903ZM259.903 201.943H261.903V199.943H259.903V201.943ZM214.818 201.943H212.818V203.943H214.818V201.943ZM214.818 156.858H216.818V154.858H214.818V156.858ZM184.307 156.858V154.858H182.307V156.858H184.307ZM184.307 201.943V203.943H186.307V201.943H184.307ZM139.222 201.943V199.943H137.222V201.943H139.222ZM139.222 232.455H137.222V234.455H139.222V232.455ZM2 40C2 19.0132 19.0132 2 40 2V-2C16.804 -2 -2 16.8041 -2 40H2ZM2 360V40H-2V360H2ZM40 398C19.0132 398 2 380.987 2 360H-2C-2 383.196 16.8041 402 40 402V398ZM360 398H40V402H360V398ZM398 360C398 380.987 380.987 398 360 398V402C383.196 402 402 383.196 402 360H398ZM398 40V360H402V40H398ZM360 2C380.987 2 398 19.0132 398 40H402C402 16.804 383.196 -2 360 -2V2ZM40 2H360V-2H40V2ZM186.307 277.54V232.455H182.307V277.54H186.307ZM214.818 275.54H184.307V279.54H214.818V275.54ZM212.818 232.455V277.54H216.818V232.455H212.818ZM259.903 230.455H214.818V234.455H259.903V230.455ZM257.903 201.943V232.455H261.903V201.943H257.903ZM214.818 203.943H259.903V199.943H214.818V203.943ZM212.818 156.858V201.943H216.818V156.858H212.818ZM184.307 158.858H214.818V154.858H184.307V158.858ZM186.307 201.943V156.858H182.307V201.943H186.307ZM139.222 203.943H184.307V199.943H139.222V203.943ZM141.222 232.455V201.943H137.222V232.455H141.222ZM184.307 230.455H139.222V234.455H184.307V230.455Z" fill="#121212" mask="url(#path-1-inside-1_3_4)"/>
<path fill-rule="evenodd" clip-rule="evenodd" d="M40 500C17.9086 500 0 517.909 0 540V860C0 882.091 17.9086 900 40 900H360C382.091 900 400 882.091 400 860V540C400 517.909 382.091 500 360 500H40ZM240.051 729.727V700.92H160.449V729.727H240.051Z" fill="#121212"/>
<mask id="path-4-inside-2_3_4" fill="white">
<path fill-rule="evenodd" clip-rule="evenodd" d="M540 500C517.909 500 500 517.909 500 540V860C500 882.091 517.909 900 540 900H860C882.091 900 900 882.091 900 860V540C900 517.909 882.091 500 860 500H540ZM759.222 731.602V702.71H639.903V731.602H759.222ZM684.903 779.074C688.938 783.108 693.824 785.125 699.562 785.125C705.131 785.125 709.903 783.108 713.881 779.074C717.858 775.04 719.847 770.153 719.847 764.415C719.847 758.847 717.858 754.074 713.881 750.097C709.903 746.119 705.131 744.131 699.562 744.131C693.824 744.131 688.938 746.119 684.903 750.097C680.869 754.074 678.852 758.847 678.852 764.415C678.852 770.153 680.869 775.04 684.903 779.074ZM689.165 687.455C692.29 689.33 695.756 690.267 699.562 690.267C705.188 690.267 709.96 688.25 713.881 684.216C717.858 680.182 719.847 675.295 719.847 669.557C719.847 663.932 717.858 659.159 713.881 655.239C709.96 651.261 705.188 649.273 699.562 649.273C693.881 649.273 688.994 651.261 684.903 655.239C680.869 659.159 678.852 663.932 678.852 669.557C678.852 673.364 679.79 676.83 681.665 679.955C683.54 683.08 686.04 685.58 689.165 687.455Z"/>
</mask>
<path fill-rule="evenodd" clip-rule="evenodd" d="M540 500C517.909 500 500 517.909 500 540V860C500 882.091 517.909 900 540 900H860C882.091 900 900 882.091 900 860V540C900 517.909 882.091 500 860 500H540ZM759.222 731.602V702.71H639.903V731.602H759.222ZM684.903 779.074C688.938 783.108 693.824 785.125 699.562 785.125C705.131 785.125 709.903 783.108 713.881 779.074C717.858 775.04 719.847 770.153 719.847 764.415C719.847 758.847 717.858 754.074 713.881 750.097C709.903 746.119 705.131 744.131 699.562 744.131C693.824 744.131 688.938 746.119 684.903 750.097C680.869 754.074 678.852 758.847 678.852 764.415C678.852 770.153 680.869 775.04 684.903 779.074ZM689.165 687.455C692.29 689.33 695.756 690.267 699.562 690.267C705.188 690.267 709.96 688.25 713.881 684.216C717.858 680.182 719.847 675.295 719.847 669.557C719.847 663.932 717.858 659.159 713.881 655.239C709.96 651.261 705.188 649.273 699.562 649.273C693.881 649.273 688.994 651.261 684.903 655.239C680.869 659.159 678.852 663.932 678.852 669.557C678.852 673.364 679.79 676.83 681.665 679.955C683.54 683.08 686.04 685.58 689.165 687.455Z" fill="#EEEEEE"/>
<path d="M759.222 702.71H761.222V700.71H759.222V702.71ZM759.222 731.602V733.602H761.222V731.602H759.222ZM639.903 702.71V700.71H637.903V702.71H639.903ZM639.903 731.602H637.903V733.602H639.903V731.602ZM713.881 779.074L712.456 777.67L712.456 777.67L713.881 779.074ZM684.903 750.097L683.499 748.672L683.499 748.672L684.903 750.097ZM713.881 684.216L712.456 682.812L712.451 682.817L712.446 682.822L713.881 684.216ZM713.881 655.239L712.456 656.643L712.466 656.653L712.477 656.663L713.881 655.239ZM684.903 655.239L686.297 656.673L686.298 656.673L684.903 655.239ZM502 540C502 519.013 519.013 502 540 502V498C516.804 498 498 516.804 498 540H502ZM502 860V540H498V860H502ZM540 898C519.013 898 502 880.987 502 860H498C498 883.196 516.804 902 540 902V898ZM860 898H540V902H860V898ZM898 860C898 880.987 880.987 898 860 898V902C883.196 902 902 883.196 902 860H898ZM898 540V860H902V540H898ZM860 502C880.987 502 898 519.013 898 540H902C902 516.804 883.196 498 860 498V502ZM540 502H860V498H540V502ZM757.222 702.71V731.602H761.222V702.71H757.222ZM639.903 704.71H759.222V700.71H639.903V704.71ZM641.903 731.602V702.71H637.903V731.602H641.903ZM759.222 729.602H639.903V733.602H759.222V729.602ZM699.562 783.125C694.351 783.125 689.974 781.316 686.318 777.66L683.489 780.488C687.901 784.9 693.297 787.125 699.562 787.125V783.125ZM712.456 777.67C708.848 781.33 704.585 783.125 699.562 783.125V787.125C705.676 787.125 710.959 784.886 715.305 780.478L712.456 777.67ZM717.847 764.415C717.847 769.636 716.059 774.015 712.456 777.67L715.305 780.478C719.656 776.064 721.847 770.671 721.847 764.415H717.847ZM712.466 751.511C716.073 755.117 717.847 759.383 717.847 764.415H721.847C721.847 758.31 719.643 753.03 715.295 748.682L712.466 751.511ZM699.562 746.131C704.594 746.131 708.86 747.904 712.466 751.511L715.295 748.682C710.947 744.334 705.667 742.131 699.562 742.131V746.131ZM686.308 751.521C689.962 747.918 694.342 746.131 699.562 746.131V742.131C693.306 742.131 687.913 744.321 683.499 748.672L686.308 751.521ZM680.852 764.415C680.852 759.392 682.647 755.13 686.308 751.521L683.499 748.672C679.091 753.018 676.852 758.301 676.852 764.415H680.852ZM686.318 777.66C682.661 774.003 680.852 769.626 680.852 764.415H676.852C676.852 770.68 679.078 776.076 683.489 780.488L686.318 777.66ZM699.562 688.267C696.101 688.267 692.994 687.42 690.194 685.74L688.136 689.17C691.586 691.24 695.41 692.267 699.562 692.267V688.267ZM712.446 682.822C708.903 686.469 704.647 688.267 699.562 688.267V692.267C705.728 692.267 711.018 690.031 715.315 685.61L712.446 682.822ZM717.847 669.557C717.847 674.778 716.059 679.157 712.456 682.812L715.305 685.62C719.656 681.206 721.847 675.813 721.847 669.557H717.847ZM712.477 656.663C716.07 660.205 717.847 664.463 717.847 669.557H721.847C721.847 663.401 719.646 658.114 715.285 653.814L712.477 656.663ZM699.562 651.273C704.656 651.273 708.915 653.05 712.456 656.643L715.305 653.835C711.006 649.473 705.719 647.273 699.562 647.273V651.273ZM686.298 656.673C690.017 653.057 694.404 651.273 699.562 651.273V647.273C693.358 647.273 687.972 649.466 683.509 653.805L686.298 656.673ZM680.852 669.557C680.852 664.472 682.651 660.217 686.297 656.673L683.51 653.804C679.088 658.101 676.852 663.391 676.852 669.557H680.852ZM683.38 678.926C681.7 676.126 680.852 673.018 680.852 669.557H676.852C676.852 673.709 677.88 677.534 679.95 680.984L683.38 678.926ZM690.194 685.74C687.35 684.033 685.086 681.769 683.38 678.926L679.95 680.984C681.994 684.39 684.729 687.126 688.136 689.17L690.194 685.74Z" fill="#121212" mask="url(#path-4-inside-2_3_4)"/>
<path fill-rule="evenodd" clip-rule="evenodd" d="M540 0C517.909 0 500 17.9086 500 40V360C500 382.091 517.909 400 540 400H860C882.091 400 900 382.091 900 360V40C900 17.9086 882.091 0 860 0H540ZM699.537 239.654L739.278 279.33L761.693 256.915L721.996 217.251L761.693 177.653L739.278 155.068L699.537 194.81L659.761 155.068L637.432 177.653L677.096 217.251L637.432 256.915L659.761 279.33L699.537 239.654Z" fill="#121212"/>
</svg>
